<svg xmlns="http://www.w3.org/2000/svg" width="256" height="256" viewBox="0 0 100 100"><rect width="100" height="100" rx="50" fill="#4f45e4"></rect><path fill="#fff" d="M48.08 79.12L48.08 79.12Q43.68 79.12 39.76 78.28Q35.84 77.44 32.96 76.24Q30.08 75.04 28.72 74L28.72 74L28.72 59.68Q32.56 61.84 38.40 63.72Q44.24 65.60 51.36 65.60L51.36 65.60Q54.24 65.60 55.64 64.84Q57.04 64.08 57.04 62.16L57.04 62.16Q57.04 60.08 53.88 58.68Q50.72 57.28 43.92 55.20L43.92 55.20Q38.64 53.52 34.92 51.48Q31.20 49.44 29.24 46.36Q27.28 43.28 27.28 38.48L27.28 38.48Q27.28 33.52 29.84 29.52Q32.40 25.52 37.84 23.20Q43.28 20.88 51.76 20.88L51.76 20.88Q54.32 20.88 57.24 21.08Q60.16 21.28 61.92 21.60L61.92 21.60L70.96 28.24L67.84 38.00L48.88 32.80Q45.60 32.80 44.04 34.16Q42.48 35.52 42.48 37.44L42.48 37.44Q42.48 39.76 45.12 41.12Q47.76 42.48 52.72 43.84L52.72 43.84Q60.56 46.00 64.88 48.64Q69.20 51.28 70.96 54.60Q72.72 57.92 72.72 62.08L72.72 62.08Q72.72 69.76 66.56 74.44Q60.40 79.12 48.08 79.12Z"></path></svg>